<svg xmlns="http://www.w3.org/2000/svg" viewBox="0 0 24 24">
  <rect width="24" height="24" rx="3" fill="#F7DF1E"/>
  <path d="M6.5 19.5l1.8-1.1c.35.62.67 1.15 1.43 1.15.73 0 1.2-.29 1.2-1.4v-7.6h2.2v7.65c0 2.3-1.35 3.35-3.32 3.35-1.78 0-2.81-.92-3.31-2.05zm7.8-.3l1.8-1.05c.48.78 1.1 1.35 2.2 1.35.92 0 1.52-.46 1.52-1.1 0-.76-.61-1.03-1.63-1.47l-.56-.24c-1.62-.69-2.69-1.55-2.69-3.37 0-1.68 1.28-2.95 3.28-2.95 1.42 0 2.45.5 3.18 1.8l-1.74 1.12c-.38-.69-.8-.96-1.44-.96-.66 0-1.07.42-1.07.96 0 .67.42.94 1.38 1.36l.56.24c1.9.82 2.97 1.65 2.97 3.52 0 2.02-1.59 3.12-3.72 3.12-2.09 0-3.43-1-4.09-2.3z" fill="#000"/>
</svg>
