<svg xmlns="http://www.w3.org/2000/svg" viewBox="0 0 24 24" fill="none">
  <rect x="2" y="2" width="20" height="20" rx="3" fill="#001E36"/>
  <path d="M7 16V8h2.8c1.6 0 2.6 1 2.6 2.3S11.4 12.5 9.8 12.5H8.5V16H7z" fill="#31A8FF"/>
  <path d="M8.5 9.3v2h1.2c.8 0 1.2-.4 1.2-1s-.4-1-1.2-1H8.5z" fill="#001E36"/>
  <path d="M14 14.5c.5.4 1.2.7 1.8.7.7 0 1-.3 1-.7 0-.5-.4-.6-1.2-.9-1.1-.4-1.8-.8-1.8-2 0-1.1.9-1.8 2.2-1.8.7 0 1.4.2 1.9.6l-.6 1c-.4-.3-.9-.5-1.3-.5-.6 0-.9.3-.9.6 0 .5.5.6 1.2.9 1.1.4 1.8.9 1.8 2 0 1.1-.8 1.9-2.3 1.9-.8 0-1.6-.3-2.2-.8l.6-1z" fill="#31A8FF"/>
</svg>
