<svg xmlns="http://www.w3.org/2000/svg" viewBox="0 0 24 24" fill="none">
  <path d="M11.9 2C7.4 2 7.8 3.9 7.8 3.9l.005 2h4.2v.6H6.4S3 6.1 3 10.6s2.97 4.35 2.97 4.35h1.77v-2.1s-.1-2.97 2.92-2.97h5.03s2.83.05 2.83-2.74V4.4S19 2 11.9 2zm-2.8 1.4a.9.9 0 1 1 0 1.8.9.9 0 0 1 0-1.8z" fill="#3776AB"/>
  <path d="M12.1 22c4.5 0 4.1-1.9 4.1-1.9l-.005-2h-4.2v-.6h5.6S21 17.9 21 13.4s-2.97-4.35-2.97-4.35h-1.77v2.1s.1 2.97-2.92 2.97H8.31s-2.83-.05-2.83 2.74v2.74S5 22 12.1 22zm2.8-1.4a.9.9 0 1 1 0-1.8.9.9 0 0 1 0 1.8z" fill="#FFD43B"/>
</svg>
